#N canvas 577 169 615 496 10;
#X obj 263 105 bng 15 250 50 0 empty empty empty 17 7 0 10 -4034 -1
-33289;
#X text 256 120 RESET;
#X obj 165 106 vradio 15 1 0 2 empty empty empty 0 -8 0 10 -262144
-33289 -1 0;
#X text 187 104 sine;
#X text 189 119 square;
#X obj 113 150 hsl 128 15 0 50 0 0 speed speed SPEED -2 -8 0 10 -262144
-33289 -1 0 1;
#X floatatom 257 148 5 0 0 0 - - -;
#X obj 113 193 hsl 128 15 0 1 0 0 depth depth DEPTH -2 -8 0 10 -262144
-33289 -1 0 1;
#X floatatom 257 194 5 0 0 0 - - -;
#X text 228 164 50;
#X text 108 164 0;
#X text 108 207 0;
#X text 234 207 1;
#X obj 452 346 clip~ -1 1;
#X obj 452 309 *~ 100000;
#X obj 165 254 outlet;
#X obj 229 254 outlet;
#X obj -63 94 inlet;
#X obj 190 383 inlet;
#X obj 341 362 *~;
#X obj 456 406 outlet~;
#X obj 452 274 spigot~;
#X obj 474 132 == 0;
#X floatatom 444 -15 5 0 0 0 - - -;
#X obj 108 -8 loadbang;
#X obj 356 294 spigot~;
#X obj 434 132 == 1;
#X floatatom 206 54 5 0 0 0 - - -;
#X obj -50 9 f \$1;
#X obj -50 416 f \$2;
#X obj 356 213 osc~;
#X msg 377 162 0;
#X obj 197 -7 inlet;
#X connect 0 0 27 0;
#X connect 0 0 29 0;
#X connect 0 0 28 0;
#X connect 0 0 31 0;
#X connect 2 0 23 0;
#X connect 5 0 6 0;
#X connect 6 0 15 0;
#X connect 6 0 5 0;
#X connect 6 0 30 0;
#X connect 7 0 8 0;
#X connect 8 0 16 0;
#X connect 8 0 19 0;
#X connect 8 0 7 0;
#X connect 13 0 19 1;
#X connect 14 0 13 0;
#X connect 17 0 5 0;
#X connect 17 0 6 0;
#X connect 18 0 7 0;
#X connect 18 0 8 0;
#X connect 19 0 20 0;
#X connect 21 0 14 0;
#X connect 22 0 21 1;
#X connect 23 0 22 0;
#X connect 23 0 26 0;
#X connect 24 0 2 0;
#X connect 24 0 28 0;
#X connect 24 0 29 0;
#X connect 24 0 31 0;
#X connect 25 0 19 1;
#X connect 26 0 25 1;
#X connect 27 0 2 0;
#X connect 28 0 5 0;
#X connect 28 0 6 0;
#X connect 29 0 7 0;
#X connect 29 0 8 0;
#X connect 30 0 21 0;
#X connect 30 0 25 0;
#X connect 31 0 30 1;
#X connect 32 0 2 0;
#X coords 0 -1 1 1 200 130 1 100 100;
