#N canvas 936 244 565 610 10;
#X obj 200 527 output~;
#X obj 313 534 wsprobe~;
#X obj 241 196 readsf~;
#X obj 163 124 delay 500;
#X obj 241 86 bng 15 250 50 0 empty empty empty 17 7 0 10 -262144 -1
-1;
#X msg 163 161 start;
#X msg 241 143 open speech.wav;
#X obj 240 411 *~;
#X obj 241 369 hilbert~;
#X obj 239 453 -~;
#X obj 285 414 *~;
#X obj 318 381 cos~;
#X obj 369 385 cos~;
#X obj 317 306 phasor~;
#X obj 368 346 +~ -0.25;
#X obj 317 277 sig~;
#X msg 317 171 0;
#X obj 320 210 hsl 128 15 -1000 1000 0 0 empty empty frequency_shift
-2 -8 0 10 -262144 -1 -1 0 1;
#X floatatom 317 244 5 0 0 0 - - -;
#X obj 241 46 loadbang;
#X connect 2 0 8 0;
#X connect 2 1 4 0;
#X connect 3 0 5 0;
#X connect 4 0 3 0;
#X connect 4 0 6 0;
#X connect 5 0 2 0;
#X connect 6 0 2 0;
#X connect 7 0 9 0;
#X connect 8 0 7 0;
#X connect 8 1 10 0;
#X connect 9 0 0 0;
#X connect 9 0 0 1;
#X connect 9 0 1 0;
#X connect 10 0 9 1;
#X connect 11 0 7 1;
#X connect 12 0 10 1;
#X connect 13 0 11 0;
#X connect 13 0 14 0;
#X connect 14 0 12 0;
#X connect 15 0 13 0;
#X connect 16 0 17 0;
#X connect 17 0 18 0;
#X connect 18 0 15 0;
#X connect 19 0 4 0;
#X connect 19 0 16 0;
