#N canvas 879 329 565 610 10;
#X obj 112 510 output~;
#X obj 241 511 wsprobe~;
#X obj 141 184 readsf~;
#X obj 63 112 delay 500;
#X obj 141 74 bng 15 250 50 0 empty empty empty 17 7 0 10 -262144 -1
-1;
#X msg 63 149 start;
#X obj 430 348 sig~;
#X obj 266 365 +~;
#X obj 212 406 *~ 0.5;
#X obj 142 424 *~;
#X obj 237 212 LFO~;
#X obj 141 39 loadbang;
#X msg 141 131 open speech.wav;
#X connect 2 0 9 0;
#X connect 2 1 4 0;
#X connect 3 0 5 0;
#X connect 4 0 3 0;
#X connect 4 0 12 0;
#X connect 5 0 2 0;
#X connect 6 0 7 1;
#X connect 7 0 8 0;
#X connect 8 0 9 1;
#X connect 9 0 0 0;
#X connect 9 0 0 1;
#X connect 9 0 1 0;
#X connect 10 0 7 0;
#X connect 10 2 6 0;
#X connect 11 0 4 0;
#X connect 12 0 2 0;
