#N canvas 892 204 899 697 10;
#X obj 51 227 outlet;
#X obj 109 228 outlet;
#X obj 171 228 outlet;
#X obj 212 164 outlet;
#X obj 109 105 bng 15 250 50 0 empty empty empty 17 7 0 10 -40053 -1
-1;
#X text 131 104 C3PO;
#X msg 109 191 0.9;
#X msg 171 190 0.9;
#X obj 109 147 t b b;
#X msg 51 190 12;
#X connect 4 0 8 0;
#X connect 6 0 1 0;
#X connect 7 0 2 0;
#X connect 8 0 9 0;
#X connect 8 0 6 0;
#X connect 8 0 7 0;
#X connect 8 1 3 0;
#X connect 9 0 0 0;
#X coords 0 -1 1 1 85 25 2 100 100;
