#N canvas 909 237 1920 936 10;
#X obj 49 227 outlet;
#X obj 225 229 outlet;
#X obj 111 228 outlet;
#X obj 268 159 outlet;
#X obj 114 105 bng 15 250 50 0 empty empty empty 17 7 0 10 -13590 -262144
-1;
#X obj 114 142 t b b;
#X obj 165 229 outlet;
#X msg 225 192 0.3;
#X msg 164 191 0.7;
#X msg 111 190 30;
#X msg 49 191 6;
#X text 133 105 COSTUM;
#X connect 4 0 5 0;
#X connect 5 0 10 0;
#X connect 5 0 7 0;
#X connect 5 0 9 0;
#X connect 5 0 8 0;
#X connect 5 1 3 0;
#X connect 7 0 1 0;
#X connect 8 0 6 0;
#X connect 9 0 2 0;
#X connect 10 0 0 0;
#X coords 0 -1 1 1 85 25 2 100 100;
