#N canvas 320 151 1920 936 10;
#X obj 32 216 outlet;
#X obj 222 213 outlet;
#X obj 113 106 bng 15 250 50 0 empty empty empty 17 7 0 10 -105913
-1 -1;
#X msg 32 180 30;
#X obj 106 136 t b b;
#X obj 141 214 outlet;
#X obj 89 215 outlet;
#X text 140 104 DALEK;
#X msg 89 181 2;
#X msg 141 180 1;
#X connect 2 0 4 0;
#X connect 3 0 0 0;
#X connect 4 0 3 0;
#X connect 4 0 9 0;
#X connect 4 0 8 0;
#X connect 4 1 1 0;
#X connect 8 0 6 0;
#X connect 9 0 5 0;
#X coords 0 -1 1 1 85 25 2 100 100;
