#N canvas 76 -9 1835 1026 10;
#X obj 146 208 vradio 15 1 0 2 empty empty empty 0 -8 0 10 -262144
-258112 -1 1;
#X obj 190 587 outlet~;
#X obj 146 128 loadbang;
#X msg 146 160 0;
#X obj 184 376 spigot;
#X floatatom 146 331 5 0 0 0 - - -;
#X obj 256 378 == 0;
#X obj 62 376 spigot;
#X obj 131 376 == 1;
#X obj 84 524 spigot~;
#X obj 264 513 spigot~;
#X obj 178 256 bng 15 250 50 0 empty empty empty 17 7 0 10 -212997
-262144 -262144;
#X text 173 241 STOP;
#X text 166 206 LIVE INPUT;
#X text 166 222 FILE INPUT;
#X obj 224 452 input-options;
#X obj 21 453 file-input;
#X connect 0 0 5 0;
#X connect 2 0 3 0;
#X connect 3 0 0 0;
#X connect 4 0 15 0;
#X connect 4 0 16 1;
#X connect 5 0 6 0;
#X connect 5 0 4 0;
#X connect 5 0 8 0;
#X connect 5 0 7 0;
#X connect 6 0 4 1;
#X connect 6 0 9 1;
#X connect 7 0 15 1;
#X connect 7 0 16 0;
#X connect 8 0 7 1;
#X connect 8 0 10 1;
#X connect 9 0 1 0;
#X connect 9 1 1 0;
#X connect 10 0 1 0;
#X connect 10 1 1 0;
#X connect 11 0 15 1;
#X connect 11 0 16 1;
#X connect 15 0 10 0;
#X connect 16 0 9 0;
#X coords 0 -1 1 1 100 90 2 140 190;
