#N canvas 71 0 1840 1026 10;
#X obj 121 111 bng 15 250 50 0 empty empty empty 17 7 0 10 -258113
-86277 -1;
#X msg 107 176 stop;
#X obj 237 193 writesf~;
#X obj 121 139 bng 15 250 50 0 empty empty empty 17 7 0 10 -4032 -13381
-1;
#X obj 106 72 inlet;
#X obj 36 120 inlet;
#X msg 238 121 open \$1 \, start;
#X obj 237 152 savepanel;
#X obj 234 74 inlet~;
#X text 139 109 RECORD;
#X text 138 137 SAVE;
#X connect 0 0 7 0;
#X connect 1 0 2 0;
#X connect 3 0 1 0;
#X connect 4 0 0 0;
#X connect 5 0 3 0;
#X connect 6 0 2 0;
#X connect 7 0 6 0;
#X connect 8 0 2 0;
#X coords 0 -1 1 1 100 60 2 100 100;
