#N canvas 370 145 1919 936 10;
#X obj -55 181 outlet;
#X obj 9 181 outlet;
#X obj 74 180 outlet;
#X obj 254 184 outlet;
#X obj 64 66 bng 15 250 50 0 empty empty empty 17 7 0 10 -26724 -204800
-1;
#X msg -55 141 0;
#X obj 135 181 outlet;
#X msg 135 139 5;
#X obj 191 182 outlet;
#X msg 191 141 1;
#X obj 64 98 t b b;
#X text 81 64 UNDERWATER;
#X msg 8 139 9;
#X msg 74 139 0.5;
#X connect 4 0 10 0;
#X connect 5 0 0 0;
#X connect 7 0 6 0;
#X connect 9 0 8 0;
#X connect 10 0 5 0;
#X connect 10 0 13 0;
#X connect 10 0 7 0;
#X connect 10 0 9 0;
#X connect 10 0 12 0;
#X connect 10 1 3 0;
#X connect 12 0 1 0;
#X connect 13 0 2 0;
#X coords 0 -1 1 1 85 25 2 60 60;
