#N canvas 628 95 901 823 10;
#X obj 67 268 sig~;
#X floatatom 388 249 5 0 0 0 - - -;
#X obj 237 249 hsl 128 15 1 1000 1 0 empty empty empty -2 -8 0 10 -262144
-1 -1 0 1;
#X obj 55 181 inlet~;
#X obj 229 86 LFO~;
#X obj 161 69 inlet;
#X obj 325 22 inlet;
#X obj 470 69 inlet;
#X obj 390 289 inlet;
#X obj 473 405 outlet~;
#X obj 529 254 != 0;
#X obj 464 215 +;
#X obj 464 253 == 0;
#X obj 425 329 spigot~;
#X obj 490 329 spigot~;
#X obj 56 131 delwrite~ delayline 1000;
#X obj 68 302 vd~ delayline;
#X obj 513 216 *~ 6;
#X obj 55 400 *~;
#X obj 54 346 +~;
#X text 232 229 DELAY;
#X text 228 68 FLANGER;
#X connect 0 0 16 0;
#X connect 1 0 0 0;
#X connect 1 0 2 0;
#X connect 2 0 1 0;
#X connect 3 0 13 0;
#X connect 3 0 15 0;
#X connect 3 0 19 0;
#X connect 4 0 11 0;
#X connect 4 1 11 1;
#X connect 4 2 17 0;
#X connect 5 0 4 0;
#X connect 6 0 4 1;
#X connect 7 0 4 2;
#X connect 8 0 1 0;
#X connect 10 0 14 1;
#X connect 11 0 12 0;
#X connect 11 0 10 0;
#X connect 12 0 13 1;
#X connect 13 0 9 0;
#X connect 13 1 9 0;
#X connect 14 0 9 0;
#X connect 14 1 9 0;
#X connect 16 0 19 1;
#X connect 17 0 18 1;
#X connect 18 0 14 0;
#X connect 19 0 18 0;
#X coords 0 -1 1 1 210 210 2 225 65;
