#N canvas 0 0 1920 936 10;
#X obj 173 372 *~;
#X obj 119 296 hilbert~;
#X obj 103 123 hsl 128 15 -1000 1000 0 0 empty empty empty -2 -8 0
10 -262144 -1 -1 0 1;
#X text 232 105 1000;
#X text 91 106 -1000;
#X floatatom 200 162 5 0 0 0 - - -;
#X obj 200 196 sig~;
#X obj 200 233 phasor~;
#X obj 200 295 cos~;
#X obj 267 337 cos~;
#X obj 266 294 +~ -0.25;
#X obj 229 372 *~;
#X obj 203 410 -~;
#X obj 119 185 inlet~;
#X obj 203 444 outlet~;
#X floatatom 258 122 5 0 0 0 - - -;
#X obj 258 53 inlet;
#X text 130 105 FREQUENCY SHIFT;
#X connect 0 0 12 0;
#X connect 1 0 0 0;
#X connect 1 1 11 0;
#X connect 2 0 5 0;
#X connect 2 0 15 0;
#X connect 5 0 6 0;
#X connect 6 0 7 0;
#X connect 7 0 8 0;
#X connect 7 0 10 0;
#X connect 8 0 0 1;
#X connect 9 0 11 1;
#X connect 10 0 9 0;
#X connect 11 0 12 1;
#X connect 12 0 14 0;
#X connect 13 0 1 0;
#X connect 15 0 2 0;
#X connect 16 0 15 0;
#X coords 0 -1 1 1 210 50 2 90 100;
