#N canvas 694 23 401 488 10;
#X obj 100 376 *~;
#X obj 115 287 +~;
#X obj 115 325 *~ 0.5;
#X obj 266 470 outlet~;
#X obj 91 62 inlet~;
#X obj 155 61 inlet;
#X obj 218 61 inlet;
#X obj 279 59 inlet;
#X obj 342 354 != 0;
#X obj 277 315 +;
#X obj 277 353 == 0;
#X obj 238 394 spigot~;
#X obj 303 394 spigot~;
#X obj 105 120 LFO~ 1;
#X text 105 102 TREMOLO;
#X connect 0 0 12 0;
#X connect 1 0 2 0;
#X connect 2 0 0 1;
#X connect 4 0 0 0;
#X connect 4 0 11 0;
#X connect 5 0 13 0;
#X connect 6 0 13 1;
#X connect 7 0 13 2;
#X connect 8 0 12 1;
#X connect 9 0 10 0;
#X connect 9 0 8 0;
#X connect 10 0 11 1;
#X connect 11 0 3 0;
#X connect 11 1 3 0;
#X connect 12 0 3 0;
#X connect 12 1 3 0;
#X connect 13 0 1 0;
#X connect 13 0 9 0;
#X connect 13 1 9 1;
#X connect 13 2 1 1;
#X coords 0 -1 1 1 210 155 2 100 100;
