#N canvas -12 -12 1920 936 10;
#X obj 91 278 *~;
#X obj 91 62 inlet~;
#X obj 154 61 inlet;
#X obj 219 60 inlet;
#X obj 105 120 LFO~;
#X obj 280 58 inlet;
#X obj 185 443 outlet~;
#X obj 261 327 != 0;
#X obj 196 288 +;
#X obj 196 326 == 0;
#X obj 157 367 spigot~;
#X obj 222 367 spigot~;
#X text 105 101 RING MODULATION;
#X connect 0 0 11 0;
#X connect 1 0 0 0;
#X connect 1 0 10 0;
#X connect 2 0 4 0;
#X connect 3 0 4 1;
#X connect 4 0 8 0;
#X connect 4 1 8 1;
#X connect 4 2 0 1;
#X connect 5 0 4 2;
#X connect 7 0 11 1;
#X connect 8 0 9 0;
#X connect 8 0 7 0;
#X connect 9 0 10 1;
#X connect 10 0 6 0;
#X connect 10 1 6 0;
#X connect 11 0 6 0;
#X connect 11 1 6 0;
#X coords 0 -1 1 1 210 155 2 100 100;
