#N canvas 368 98 1920 910 10;
#X obj -51 210 loadbang;
#X obj 113 228 hsl 128 15 0 1 0 0 empty empty empty -2 -8 0 10 -262144
-1 -1 0 1;
#X obj 59 313 *~;
#X msg -51 239 1;
#X obj -141 243 *~;
#X obj -51 282 -;
#X obj 45 370 +~;
#X floatatom -52 333 5 0 0 0 - - -;
#X floatatom 137 289 5 0 0 0 - - -;
#X obj 45 405 outlet~;
#X obj -140 71 inlet~;
#X obj 60 178 inlet~;
#X floatatom 268 228 5 0 0 0 - - -;
#X obj 268 179 inlet;
#X obj -40 102 metro 100;
#X msg -41 70 bang;
#X obj -37 146 snapshot~;
#X obj -116 146 snapshot~;
#X floatatom -116 175 5 0 0 0 - - -;
#X floatatom -37 176 5 0 0 0 - - -;
#X text 103 209 ORIGINAL;
#X text 210 209 MODULATED;
#X connect 0 0 3 0;
#X connect 1 0 2 1;
#X connect 1 0 5 1;
#X connect 1 0 8 0;
#X connect 1 0 3 0;
#X connect 1 0 12 0;
#X connect 2 0 6 1;
#X connect 2 0 16 0;
#X connect 3 0 5 0;
#X connect 4 0 6 0;
#X connect 4 0 17 0;
#X connect 5 0 4 1;
#X connect 5 0 7 0;
#X connect 6 0 9 0;
#X connect 10 0 4 0;
#X connect 11 0 2 0;
#X connect 12 0 1 0;
#X connect 13 0 12 0;
#X connect 14 0 16 0;
#X connect 14 0 17 0;
#X connect 15 0 14 0;
#X connect 16 0 19 0;
#X connect 17 0 18 0;
#X coords 0 -1 1 1 210 55 2 100 205;
