#N canvas -12 -12 1920 936 10;
#X obj 3 72 inlet~;
#X obj 105 120 LFO~;
#X obj 106 70 inlet;
#X obj 201 71 inlet;
#X obj 298 70 inlet;
#X obj 42 493 *~;
#X obj 42 448 hilbert~;
#X obj 114 270 hsl 128 15 -1000 1000 0 0 empty empty empty -2 -8 0
10 -262144 -1 -1 0 1;
#X text 141 252 Frequency Shift;
#X text 243 252 1000;
#X text 102 253 -1000;
#X floatatom 123 305 5 0 0 0 - - -;
#X obj 123 339 sig~;
#X obj 123 376 phasor~;
#X obj 123 447 cos~;
#X obj 181 446 cos~;
#X obj 181 404 +~ -0.25;
#X obj 87 492 *~;
#X obj 42 531 -~;
#X floatatom 269 269 5 0 0 0 - - -;
#X obj 368 307 *~ 3.5;
#X obj 267 359 +~;
#X obj 56 72 inlet;
#X obj 324 546 outlet~;
#X obj 400 395 != 0;
#X obj 335 356 +;
#X obj 335 394 == 0;
#X obj 296 470 spigot~;
#X obj 361 470 spigot~;
#X text 103 101 VIBRATO;
#X connect 0 0 6 0;
#X connect 0 0 27 0;
#X connect 1 0 25 0;
#X connect 1 1 25 1;
#X connect 1 2 20 0;
#X connect 2 0 1 0;
#X connect 3 0 1 1;
#X connect 4 0 1 2;
#X connect 5 0 18 0;
#X connect 6 0 5 0;
#X connect 6 1 17 0;
#X connect 7 0 11 0;
#X connect 7 0 19 0;
#X connect 11 0 12 0;
#X connect 12 0 21 0;
#X connect 13 0 14 0;
#X connect 13 0 16 0;
#X connect 14 0 5 1;
#X connect 15 0 17 1;
#X connect 16 0 15 0;
#X connect 17 0 18 1;
#X connect 18 0 28 0;
#X connect 19 0 7 0;
#X connect 20 0 21 1;
#X connect 21 0 13 0;
#X connect 22 0 19 0;
#X connect 24 0 28 1;
#X connect 25 0 26 0;
#X connect 25 0 24 0;
#X connect 26 0 27 1;
#X connect 27 0 23 0;
#X connect 27 1 23 0;
#X connect 28 0 23 0;
#X connect 28 1 23 0;
#X coords 0 -1 1 1 210 195 2 100 100;
