#N canvas 0 0 1920 936 10;
#X obj 118 332 wsprobe~;
#X obj 13 269 +~;
#X obj 33 139 sig~;
#X floatatom 266 121 5 0 0 0 - - -;
#X obj 112 122 hsl 128 15 1 1000 1 0 empty empty empty -2 -8 0 10 -262144
-1 -1 0 1;
#X obj 252 306 *~;
#X obj 267 273 sig~;
#X floatatom 267 160 5 0 0 0 - - -;
#X obj 113 162 hsl 128 15 0 1 0 0 empty empty empty -2 -8 0 10 -262144
-1 -1 0 1;
#X obj 12 29 inlet~;
#X obj 11 334 outlet~;
#X text 109 103 1;
#X text 215 103 1000;
#X text 109 143 0;
#X text 234 145 1;
#X obj 266 29 inlet;
#X obj 396 143 inlet;
#X obj 33 67 delwrite~ delayline2 1000;
#X obj 32 242 vd~ delayline2;
#X obj 134 27 r~ feedback;
#X obj 252 346 s~ feedback;
#X text 153 103 DELAY;
#X text 148 143 FEEDBACK;
#X connect 1 0 0 0;
#X connect 1 0 5 0;
#X connect 1 0 10 0;
#X connect 2 0 18 0;
#X connect 3 0 2 0;
#X connect 3 0 4 0;
#X connect 4 0 3 0;
#X connect 5 0 20 0;
#X connect 6 0 5 1;
#X connect 7 0 6 0;
#X connect 7 0 8 0;
#X connect 8 0 7 0;
#X connect 9 0 1 0;
#X connect 9 0 17 0;
#X connect 15 0 3 0;
#X connect 16 0 7 0;
#X connect 18 0 1 1;
#X connect 19 0 17 0;
#X coords 0 -1 1 1 210 85 2 100 100;
