#N canvas 71 0 1840 980 10;
#X obj 548 302 VFX-freqshift;
#X obj 547 145 VFX-mixer;
#X obj 1203 550 pvu~;
#X obj 828 391 vu 21 120 empty empty -1 -8 0 10 -66577 -1 0 0;
#X obj 821 523 knob 35 35 0 1 0 0 empty empty empty 0 -8 0 8 -1 -234950
-1 3400 1;
#X obj 1014 666 line~;
#X obj 1117 692 *~;
#X obj 1137 722 dac~;
#X obj 1179 691 *~;
#X obj 1128 588 hip~ 3;
#X obj 1190 588 hip~ 3;
#X obj 1014 645 pack 0 50;
#X msg 1014 610 0;
#X obj 1014 587 moses 0.011;
#X msg 682 817 0;
#X obj 682 659 loadbang;
#X obj 21 362 VFX-flanger;
#X obj 1210 295 reset;
#X obj 792 200 C3Po;
#X obj 792 239 underwater;
#X obj 792 166 dalek;
#X obj 548 210 VFX-reverberation;
#N canvas 198 97 450 278 (subpatch) 0;
#X array WAVEFORM 25 float 0;
#X coords 0 1 24 -1 210 65 1 0 0;
#X restore 681 44 graph;
#X obj 803 818 metro 50;
#X msg 734 816 10000;
#X obj 279 362 VFX-vibrato;
#X text 41 121 SETTINGS;
#X text 616 353 SOUND EFFECTS;
#X text 813 316 PRESETS;
#X text 820 562 VOLUME;
#X obj 18 151 VFX-tremolo;
#X obj 282 150 VFX-ring-modulation;
#X obj 17 32 panel-options;
#X obj 280 60 record;
#X obj 548 44 panel-effects;
#X obj 549 378 VFX-bandpass;
#X obj 550 489 VFX-low-pass;
#X obj 550 552 VFX-high-pass;
#X obj 549 834 tabwrite~ WAVEFORM;
#X obj 793 278 costum;
#X connect 0 0 21 0;
#X connect 1 0 36 0;
#X connect 2 0 3 0;
#X connect 4 0 13 0;
#X connect 5 0 8 0;
#X connect 5 0 6 0;
#X connect 6 0 7 0;
#X connect 8 0 7 1;
#X connect 9 0 6 1;
#X connect 10 0 8 1;
#X connect 11 0 5 0;
#X connect 12 0 11 0;
#X connect 13 0 12 0;
#X connect 13 1 11 0;
#X connect 14 0 4 0;
#X connect 15 0 14 0;
#X connect 15 0 23 0;
#X connect 15 0 24 0;
#X connect 16 0 25 0;
#X connect 17 0 21 1;
#X connect 17 0 21 2;
#X connect 17 0 16 4;
#X connect 17 0 16 3;
#X connect 17 0 16 2;
#X connect 17 0 16 1;
#X connect 17 0 1 2;
#X connect 17 0 0 1;
#X connect 17 0 25 1;
#X connect 17 0 25 2;
#X connect 17 0 25 3;
#X connect 17 0 25 4;
#X connect 17 0 30 1;
#X connect 17 0 30 2;
#X connect 17 0 30 3;
#X connect 17 0 31 1;
#X connect 17 0 31 2;
#X connect 17 0 31 3;
#X connect 17 0 35 1;
#X connect 17 0 35 2;
#X connect 17 0 37 1;
#X connect 17 1 36 1;
#X connect 18 0 21 1;
#X connect 18 1 21 2;
#X connect 18 2 1 2;
#X connect 18 3 17 0;
#X connect 19 0 16 4;
#X connect 19 1 16 2;
#X connect 19 2 16 3;
#X connect 19 3 16 1;
#X connect 19 4 1 2;
#X connect 19 5 17 0;
#X connect 20 0 31 1;
#X connect 20 1 31 2;
#X connect 20 2 1 2;
#X connect 20 3 17 0;
#X connect 21 0 2 0;
#X connect 21 0 1 1;
#X connect 21 0 33 2;
#X connect 23 0 38 0;
#X connect 24 0 36 1;
#X connect 25 0 0 0;
#X connect 30 0 31 0;
#X connect 31 0 16 0;
#X connect 32 0 1 0;
#X connect 32 0 30 0;
#X connect 34 0 21 1;
#X connect 34 1 1 2;
#X connect 35 0 10 0;
#X connect 35 0 9 0;
#X connect 35 0 38 0;
#X connect 36 0 37 0;
#X connect 37 0 35 0;
#X connect 39 0 25 4;
#X connect 39 1 25 2;
#X connect 39 2 25 3;
#X connect 39 3 1 2;
#X connect 39 4 17 0;
#X coords 0 -1 1 1 890 615 2 5 10;
